<?xml version="1.0" encoding="UTF-8"?>
<svg xmlns="http://www.w3.org/2000/svg" xmlns:xlink="http://www.w3.org/1999/xlink" viewBox="0 0 30 30" width="30px" height="30px">
<g id="surface35548829">
<path style=" stroke:none;fill-rule:nonzero;fill:rgb(0%,0%,0%);fill-opacity:1;" d="M 15 24.449219 C 9.78125 24.449219 5.550781 20.21875 5.550781 15 C 5.550781 9.78125 9.78125 5.550781 15 5.550781 C 20.21875 5.550781 24.449219 9.78125 24.449219 15 C 24.449219 20.21875 20.21875 24.449219 15 24.449219 Z M 15 24.449219 "/>
<path style=" stroke:none;fill-rule:nonzero;fill:rgb(100%,100%,100%);fill-opacity:1;" d="M 15 5.398438 C 9.71875 5.398438 5.4375 9.679688 5.4375 14.960938 C 5.4375 19.441406 8.523438 23.191406 12.683594 24.230469 C 12.636719 24.101562 12.609375 23.949219 12.609375 23.765625 L 12.609375 22.132812 C 12.222656 22.132812 11.570312 22.132812 11.40625 22.132812 C 10.753906 22.132812 10.171875 21.851562 9.890625 21.328125 C 9.578125 20.746094 9.523438 19.859375 8.746094 19.3125 C 8.515625 19.132812 8.691406 18.925781 8.957031 18.953125 C 9.445312 19.09375 9.851562 19.429688 10.234375 19.929688 C 10.617188 20.429688 10.796875 20.542969 11.507812 20.542969 C 11.851562 20.542969 12.367188 20.519531 12.855469 20.445312 C 13.117188 19.78125 13.566406 19.167969 14.121094 18.882812 C 10.9375 18.554688 9.417969 16.96875 9.417969 14.820312 C 9.417969 13.894531 9.8125 12.996094 10.480469 12.242188 C 10.261719 11.492188 9.984375 9.964844 10.566406 9.382812 C 12 9.382812 12.863281 10.3125 13.074219 10.566406 C 13.785156 10.320312 14.570312 10.179688 15.394531 10.179688 C 16.21875 10.179688 17.007812 10.320312 17.722656 10.566406 C 17.929688 10.316406 18.796875 9.382812 20.230469 9.382812 C 20.816406 9.96875 20.535156 11.5 20.3125 12.25 C 20.980469 13 21.371094 13.894531 21.371094 14.820312 C 21.371094 16.96875 19.855469 18.550781 16.675781 18.878906 C 17.550781 19.335938 18.1875 20.621094 18.1875 21.585938 L 18.1875 23.765625 C 18.1875 23.847656 18.167969 23.90625 18.160156 23.980469 C 21.886719 22.671875 24.5625 19.136719 24.5625 14.960938 C 24.5625 9.679688 20.28125 5.398438 15 5.398438 Z M 15 5.398438 "/>
</g>
</svg>
