<svg width="16" height="16" viewBox="0 0 16 16" fill="none" xmlns="http://www.w3.org/2000/svg">
<path d="M7.75 15.5C3.46875 15.5 0 12.0312 0 7.75C0 3.46875 3.46875 0 7.75 0C12.0312 0 15.5 3.46875 15.5 7.75C15.5 12.0312 12.0312 15.5 7.75 15.5Z" fill="black"/>
<path d="M7.96875 0C3.56641 0 0 3.62291 0 8.095C0 11.8885 2.57031 15.063 6.03906 15.94C6 15.8329 5.97656 15.7059 5.97656 15.5472V14.1623C5.65234 14.1623 5.10937 14.1623 4.97656 14.1623C4.42969 14.1623 3.94531 13.9242 3.71094 13.4837C3.44922 12.9917 3.40234 12.2377 2.75781 11.7774C2.56641 11.6266 2.71094 11.452 2.93359 11.4758C3.33984 11.5909 3.67969 11.8766 4 12.2973C4.31641 12.7218 4.46484 12.8171 5.05859 12.8171C5.34766 12.8171 5.77734 12.8012 6.17969 12.7377C6.39844 12.1742 6.77734 11.6584 7.23438 11.4124C4.58203 11.1346 3.31641 9.79336 3.31641 7.97198C3.31641 7.19026 3.64453 6.43235 4.20312 5.79348C4.01953 5.15858 3.78906 3.86496 4.27344 3.37291C5.46875 3.37291 6.1875 4.15861 6.36328 4.37289C6.95703 4.16654 7.60938 4.0475 8.29688 4.0475C8.98438 4.0475 9.64063 4.16654 10.2383 4.37289C10.4102 4.16257 11.1328 3.37291 12.3281 3.37291C12.8125 3.86496 12.582 5.16651 12.3945 5.79745C12.9492 6.43632 13.2773 7.19026 13.2773 7.97198C13.2773 9.79336 12.0117 11.1346 9.36328 11.4124C10.0938 11.7973 10.625 12.8845 10.625 13.702V15.5472C10.625 15.6186 10.6094 15.6662 10.6016 15.7297C13.707 14.6226 15.9375 11.6266 15.9375 8.095C15.9375 3.62291 12.3711 0 7.96875 0Z" fill="white"/>
</svg>
