<?xml version="1.0" encoding="UTF-8"?>
<svg xmlns="http://www.w3.org/2000/svg" xmlns:xlink="http://www.w3.org/1999/xlink" viewBox="0 0 25 25" width="25px" height="25px">
<g id="surface18102693">
<path style=" stroke:none;fill-rule:nonzero;fill:rgb(0%,0%,0%);fill-opacity:1;" d="M 12.5 20.25 C 8.21875 20.25 4.75 16.78125 4.75 12.5 C 4.75 8.21875 8.21875 4.75 12.5 4.75 C 16.78125 4.75 20.25 8.21875 20.25 12.5 C 20.25 16.78125 16.78125 20.25 12.5 20.25 Z M 12.5 20.25 "/>
<path style=" stroke:none;fill-rule:nonzero;fill:rgb(100%,100%,100%);fill-opacity:1;" d="M 12.5 4.5 C 8.097656 4.5 4.53125 8.066406 4.53125 12.46875 C 4.53125 16.203125 7.101562 19.328125 10.570312 20.191406 C 10.53125 20.085938 10.507812 19.960938 10.507812 19.804688 L 10.507812 18.441406 C 10.183594 18.441406 9.640625 18.441406 9.507812 18.441406 C 8.960938 18.441406 8.476562 18.207031 8.242188 17.773438 C 7.980469 17.289062 7.933594 16.546875 7.289062 16.09375 C 7.097656 15.945312 7.242188 15.773438 7.464844 15.796875 C 7.871094 15.910156 8.210938 16.191406 8.53125 16.605469 C 8.847656 17.023438 8.996094 17.117188 9.589844 17.117188 C 9.878906 17.117188 10.308594 17.101562 10.710938 17.039062 C 10.929688 16.484375 11.308594 15.976562 11.765625 15.734375 C 9.113281 15.460938 7.847656 14.140625 7.847656 12.347656 C 7.847656 11.578125 8.175781 10.832031 8.734375 10.203125 C 8.550781 9.578125 8.320312 8.304688 8.804688 7.820312 C 10 7.820312 10.71875 8.59375 10.894531 8.804688 C 11.488281 8.601562 12.140625 8.484375 12.828125 8.484375 C 13.515625 8.484375 14.171875 8.601562 14.769531 8.804688 C 14.941406 8.597656 15.664062 7.820312 16.859375 7.820312 C 17.34375 8.304688 17.113281 9.585938 16.925781 10.207031 C 17.480469 10.835938 17.808594 11.578125 17.808594 12.347656 C 17.808594 14.140625 16.542969 15.460938 13.894531 15.734375 C 14.625 16.113281 15.15625 17.183594 15.15625 17.988281 L 15.15625 19.804688 C 15.15625 19.875 15.140625 19.921875 15.132812 19.984375 C 18.238281 18.894531 20.46875 15.945312 20.46875 12.46875 C 20.46875 8.066406 16.902344 4.5 12.5 4.5 Z M 12.5 4.5 "/>
</g>
</svg>
