<svg width="382" height="69" viewBox="0 0 382 69" fill="none" xmlns="http://www.w3.org/2000/svg">
<g style="mix-blend-mode:darken">
<path d="M37.9985 0.395996L75.8148 65.7724H0.182144L37.9985 0.395996Z" fill="url(#paint0_linear_6_11)"/>
</g>
<g style="mix-blend-mode:darken">
<path d="M37.8163 66.6088L0 1.23243L75.6327 1.23243L37.8163 66.6088Z" fill="url(#paint1_linear_6_11)"/>
</g>
<path d="M146.08 16.4V56H143.2V26.48L143.56 19.28H143.5L129.04 56H126.28L111.82 19.28H111.76L112.12 26.48V56H109.24V16.4H113.74L125.68 46.4L127.66 52.46H127.72L129.64 46.46L141.58 16.4H146.08ZM175.476 56V44.72H155.796V42.44L174.636 16.4H178.476V42.14H186.096V44.72H178.476V56H175.476ZM159.036 42.14H175.476V24.02C175.476 23.22 175.476 22.38 175.476 21.5C175.516 20.62 175.556 19.76 175.596 18.92H175.476C175.036 19.76 174.496 20.66 173.856 21.62C173.256 22.54 172.696 23.38 172.176 24.14L159.036 42.14ZM215.178 26H218.358L205.818 56H202.818L190.278 26H193.638L204.378 52.88L215.178 26ZM237.545 56.6C234.785 56.6 232.325 55.98 230.165 54.74C228.005 53.5 226.305 51.72 225.065 49.4C223.865 47.04 223.265 44.24 223.265 41C223.265 37.76 223.865 34.98 225.065 32.66C226.305 30.3 227.965 28.5 230.045 27.26C232.125 26.02 234.505 25.4 237.185 25.4C239.905 25.4 242.225 26 244.145 27.2C246.065 28.4 247.545 30.08 248.585 32.24C249.625 34.36 250.145 36.82 250.145 39.62C250.145 39.98 250.125 40.34 250.085 40.7C250.085 41.02 250.065 41.32 250.025 41.6H225.125V38.9H248.705L247.205 39.32C247.165 35.88 246.245 33.14 244.445 31.1C242.685 29.06 240.245 28.04 237.125 28.04C234.965 28.04 233.065 28.56 231.425 29.6C229.785 30.6 228.505 32.08 227.585 34.04C226.665 35.96 226.205 38.28 226.205 41C226.205 43.68 226.665 46 227.585 47.96C228.545 49.92 229.865 51.42 231.545 52.46C233.265 53.46 235.245 53.96 237.485 53.96C239.805 53.96 241.785 53.46 243.425 52.46C245.105 51.46 246.405 50.08 247.325 48.32L249.725 49.7C249.005 51.14 248.045 52.38 246.845 53.42C245.645 54.42 244.265 55.2 242.705 55.76C241.145 56.32 239.425 56.6 237.545 56.6ZM259.703 56V26H262.223L262.583 32.3C263.343 30.18 264.563 28.5 266.243 27.26C267.923 26.02 269.943 25.4 272.303 25.4C273.103 25.4 273.823 25.48 274.463 25.64C275.103 25.8 275.623 26.06 276.023 26.42L275.363 29.06C274.923 28.78 274.443 28.56 273.923 28.4C273.403 28.24 272.623 28.16 271.583 28.16C270.063 28.16 268.623 28.64 267.263 29.6C265.903 30.52 264.803 31.82 263.963 33.5C263.123 35.14 262.703 37.04 262.703 39.2V56H259.703ZM307.019 26L292.499 61.52C291.779 63.36 290.999 64.82 290.159 65.9C289.319 66.98 288.379 67.74 287.339 68.18C286.299 68.66 285.099 68.9 283.739 68.9C282.539 68.9 281.439 68.72 280.439 68.36C279.439 68 278.619 67.5 277.979 66.86L278.939 64.28C279.539 65 280.259 65.5 281.099 65.78C281.939 66.1 282.799 66.26 283.679 66.26C284.959 66.26 286.099 65.88 287.099 65.12C288.099 64.4 289.039 62.96 289.919 60.8L291.899 56L288.719 48.56L279.239 26H282.659L291.839 48.74L293.339 52.76L294.959 48.44L303.779 26H307.019ZM326.089 25.4C328.129 25.4 329.949 25.72 331.549 26.36C333.149 27 334.509 27.92 335.629 29.12C336.749 30.32 337.609 31.78 338.209 33.5L335.389 34.82C334.749 32.66 333.629 31 332.029 29.84C330.469 28.64 328.469 28.04 326.029 28.04C323.829 28.04 321.889 28.56 320.209 29.6C318.529 30.6 317.229 32.08 316.309 34.04C315.389 35.96 314.929 38.28 314.929 41C314.929 43.68 315.389 46 316.309 47.96C317.229 49.92 318.509 51.42 320.149 52.46C321.789 53.46 323.729 53.96 325.969 53.96C327.649 53.96 329.169 53.68 330.529 53.12C331.929 52.56 333.069 51.74 333.949 50.66C334.869 49.58 335.469 48.3 335.749 46.82L338.509 47.78C337.989 49.62 337.129 51.2 335.929 52.52C334.769 53.84 333.349 54.86 331.669 55.58C329.989 56.26 328.109 56.6 326.029 56.6C323.309 56.6 320.869 55.98 318.709 54.74C316.589 53.5 314.929 51.72 313.729 49.4C312.529 47.04 311.929 44.24 311.929 41C311.929 37.76 312.529 34.98 313.729 32.66C314.969 30.3 316.649 28.5 318.769 27.26C320.929 26.02 323.369 25.4 326.089 25.4ZM372.267 26L359.067 38.72L358.347 39.44L349.047 48.44V44.6L368.367 26H372.267ZM350.547 12.2V56H347.547V12.2H350.547ZM359.247 37.16L372.747 56H369.087L356.787 38.9L359.247 37.16Z" fill="#A451E4"/>
<defs>
<linearGradient id="paint0_linear_6_11" x1="42.6887" y1="8.5044" x2="42.6887" y2="95.6729" gradientUnits="userSpaceOnUse">
<stop stop-color="#8C24DD" stop-opacity="0.7"/>
<stop offset="1" stop-color="#8C24DD"/>
</linearGradient>
<linearGradient id="paint1_linear_6_11" x1="33.1261" y1="58.5004" x2="33.1261" y2="-28.6681" gradientUnits="userSpaceOnUse">
<stop stop-color="#DC143C" stop-opacity="0.7"/>
<stop offset="0.921875" stop-color="#DC143C"/>
<stop offset="1" stop-color="#180625" stop-opacity="0"/>
</linearGradient>
</defs>
</svg>
