<svg width="264" height="117" viewBox="0 0 264 117" fill="none" xmlns="http://www.w3.org/2000/svg">
<path d="M40.96 60.16C41.1733 58.56 41.3867 56.8533 41.6 55.04C41.8133 53.1733 42.0267 51.3067 42.24 49.44C42.5067 47.5733 42.7733 45.7333 43.04 43.92C43.36 42.0533 43.68 40.2933 44 38.64L44.48 36.48C44.9067 34.6667 45.3867 32.6667 45.92 30.48C46.5067 28.24 47.0133 26.2133 47.44 24.4C47.6 23.6533 47.84 22.88 48.16 22.08C48.48 21.28 48.7733 20.48 49.04 19.68L49.68 18.8C49.5733 18.8 49.4933 18.8 49.44 18.8C49.44 18.7467 49.3867 18.72 49.28 18.72C49.1733 18.6133 48.96 18.56 48.64 18.56C48.3733 18.56 48.0533 18.5867 47.68 18.64C47.4667 18.6933 47.2533 18.7467 47.04 18.8C46.8267 18.8 46.6667 18.8533 46.56 18.96C46.4533 19.0667 46.3733 19.1467 46.32 19.2C46.32 19.2533 46.2667 19.3333 46.16 19.44L45.44 20.72C44.6933 22 43.7333 23.44 42.56 25.04C41.44 26.5867 40.24 28.16 38.96 29.76C37.7333 31.3067 36.5333 32.8267 35.36 34.32C34.1867 35.76 33.2 37.04 32.4 38.16C31.6533 39.0667 30.64 40.24 29.36 41.68C28.08 43.12 26.64 44.6933 25.04 46.4C24.1867 44.6933 23.4133 43.12 22.72 41.68C22.08 40.24 21.6267 39.0667 21.36 38.16C20.9867 37.04 20.56 35.7333 20.08 34.24C19.6533 32.7467 19.2 31.2 18.72 29.6C18.24 28 17.7867 26.4267 17.36 24.88C16.9333 23.28 16.56 21.84 16.24 20.56L15.92 19.36C15.92 19.1467 15.8933 18.9867 15.84 18.88C15.7333 18.7733 15.5733 18.72 15.36 18.72C15.2 18.6667 15.04 18.6133 14.88 18.56C14.56 18.4533 14.24 18.4 13.92 18.4C13.6533 18.4 13.44 18.4533 13.28 18.56C13.1733 18.6133 13.0933 18.64 13.04 18.64C12.9867 18.64 12.9067 18.6667 12.8 18.72L13.04 19.6C12.9333 20.3467 12.8533 21.12 12.8 21.92C12.8 22.72 12.6933 23.52 12.48 24.32C12.0533 26.1333 11.6267 28.16 11.2 30.4C10.7733 32.5867 10.3467 34.5867 9.92 36.4L9.44 38.56C9.12 40.2133 8.66667 41.9733 8.08 43.84C7.54667 45.6533 6.96 47.4933 6.32 49.36C5.73333 51.2267 5.12 53.0933 4.48 54.96C3.84 56.7733 3.25333 58.48 2.72 60.08H5.84C6.16 59.3333 6.56 58.1867 7.04 56.64C7.52 55.0933 8.05333 53.3333 8.64 51.36C9.28 49.3333 9.89333 47.2 10.48 44.96C11.12 42.72 11.7333 40.56 12.32 38.48C12.8 36.5067 13.2533 34.5867 13.68 32.72C14.1067 30.8533 14.48 29.0933 14.8 27.44C15.3333 29.36 15.8667 31.28 16.4 33.2C16.9333 35.12 17.5467 36.9333 18.24 38.64C18.56 39.5467 18.9333 40.5867 19.36 41.76C19.84 42.88 20.32 44.0267 20.8 45.2C21.28 46.3733 21.76 47.52 22.24 48.64C22.72 49.7067 23.1467 50.64 23.52 51.44C24.2667 50.64 25.1467 49.7067 26.16 48.64C27.2267 47.52 28.2933 46.3733 29.36 45.2C30.48 44.0267 31.5467 42.88 32.56 41.76C33.5733 40.5867 34.4533 39.5467 35.2 38.64C36.64 36.9333 38.08 35.1467 39.52 33.28C40.96 31.36 42.3467 29.44 43.68 27.52C43.2533 29.1733 42.8267 30.9333 42.4 32.8C42.0267 34.6667 41.6267 36.5867 41.2 38.56C40.7733 40.64 40.3733 42.8 40 45.04C39.6267 47.28 39.28 49.4133 38.96 51.44C38.6933 53.4133 38.4533 55.1733 38.24 56.72C38.0267 58.2667 37.8933 59.4133 37.84 60.16H40.96ZM16.08 19.92L15.84 18.88C15.9467 19.3067 16.0267 19.6533 16.08 19.92Z" fill="white"/>
<path d="M49.96 73.7873C50.1733 72.1873 50.3867 70.4807 50.6 68.6673C50.8133 66.8007 51.0267 64.934 51.24 63.0673C51.5067 61.2007 51.7733 59.3607 52.04 57.5473C52.36 55.6807 52.68 53.9207 53 52.2673L53.48 50.1073C53.9067 48.294 54.3867 46.294 54.92 44.1073C55.5067 41.8673 56.0133 39.8407 56.44 38.0273C56.6 37.2807 56.84 36.5073 57.16 35.7073C57.48 34.9073 57.7733 34.1073 58.04 33.3073L58.68 32.4273C58.5733 32.4273 58.4933 32.4273 58.44 32.4273C58.44 32.374 58.3867 32.3473 58.28 32.3473C58.1733 32.2407 57.96 32.1873 57.64 32.1873C57.3733 32.1873 57.0533 32.214 56.68 32.2673C56.4667 32.3207 56.2533 32.374 56.04 32.4273C55.8267 32.4273 55.6667 32.4807 55.56 32.5873C55.4533 32.694 55.3733 32.774 55.32 32.8273C55.32 32.8807 55.2667 32.9607 55.16 33.0673L54.44 34.3473C53.6933 35.6273 52.7333 37.0673 51.56 38.6673C50.44 40.214 49.24 41.7873 47.96 43.3873C46.7333 44.934 45.5333 46.454 44.36 47.9473C43.1867 49.3873 42.2 50.6673 41.4 51.7873C40.6533 52.694 39.64 53.8673 38.36 55.3073C37.08 56.7473 35.64 58.3207 34.04 60.0273C33.1867 58.3207 32.4133 56.7473 31.72 55.3073C31.08 53.8673 30.6267 52.694 30.36 51.7873C29.9867 50.6673 29.56 49.3607 29.08 47.8673C28.6533 46.374 28.2 44.8273 27.72 43.2273C27.24 41.6273 26.7867 40.054 26.36 38.5073C25.9333 36.9073 25.56 35.4673 25.24 34.1873L24.92 32.9873C24.92 32.774 24.8933 32.614 24.84 32.5073C24.7333 32.4007 24.5733 32.3473 24.36 32.3473C24.2 32.294 24.04 32.2407 23.88 32.1873C23.56 32.0807 23.24 32.0273 22.92 32.0273C22.6533 32.0273 22.44 32.0807 22.28 32.1873C22.1733 32.2407 22.0933 32.2673 22.04 32.2673C21.9867 32.2673 21.9067 32.294 21.8 32.3473L22.04 33.2274C21.9333 33.974 21.8533 34.7473 21.8 35.5473C21.8 36.3473 21.6933 37.1473 21.48 37.9473C21.0533 39.7607 20.6267 41.7873 20.2 44.0273C19.7733 46.214 19.3467 48.214 18.92 50.0273L18.44 52.1873C18.12 53.8407 17.6667 55.6007 17.08 57.4673C16.5467 59.2807 15.96 61.1207 15.32 62.9873C14.7333 64.854 14.12 66.7207 13.48 68.5873C12.84 70.4007 12.2533 72.1073 11.72 73.7073H14.84C15.16 72.9607 15.56 71.814 16.04 70.2673C16.52 68.7207 17.0533 66.9607 17.64 64.9873C18.28 62.9607 18.8933 60.8273 19.48 58.5873C20.12 56.3473 20.7333 54.1873 21.32 52.1073C21.8 50.134 22.2533 48.214 22.68 46.3473C23.1067 44.4807 23.48 42.7207 23.8 41.0673C24.3333 42.9873 24.8667 44.9073 25.4 46.8273C25.9333 48.7473 26.5467 50.5607 27.24 52.2673C27.56 53.174 27.9333 54.214 28.36 55.3873C28.84 56.5073 29.32 57.654 29.8 58.8273C30.28 60.0007 30.76 61.1473 31.24 62.2673C31.72 63.334 32.1467 64.2673 32.52 65.0673C33.2667 64.2673 34.1467 63.334 35.16 62.2673C36.2267 61.1473 37.2933 60.0007 38.36 58.8273C39.48 57.654 40.5467 56.5073 41.56 55.3873C42.5733 54.214 43.4533 53.174 44.2 52.2673C45.64 50.5607 47.08 48.774 48.52 46.9073C49.96 44.9873 51.3467 43.0673 52.68 41.1473C52.2533 42.8007 51.8267 44.5607 51.4 46.4273C51.0267 48.294 50.6267 50.214 50.2 52.1873C49.7733 54.2673 49.3733 56.4273 49 58.6673C48.6267 60.9073 48.28 63.0407 47.96 65.0673C47.6933 67.0407 47.4533 68.8007 47.24 70.3473C47.0267 71.894 46.8933 73.0407 46.84 73.7873H49.96ZM25.08 33.5473L24.84 32.5073C24.9467 32.934 25.0267 33.2807 25.08 33.5473ZM81.7213 71.8673L80.5213 71.4673C80.4146 69.334 80.3879 67.2007 80.4413 65.0673C80.5479 62.8807 80.7079 60.6673 80.9213 58.4273C81.0279 57.0407 81.1613 55.654 81.3213 54.2673C81.4813 52.8273 81.6946 51.3873 81.9613 49.9473C82.0679 49.574 81.9613 49.3873 81.6413 49.3873C78.8679 49.2807 76.2013 49.814 73.6413 50.9873C71.1346 52.1607 68.8413 53.6807 66.7613 55.5473C64.7346 57.414 63.0013 59.4407 61.5613 61.6273C60.1213 63.814 59.0813 65.8407 58.4413 67.7073C57.8013 69.5207 57.6413 71.014 57.9613 72.1873C58.2813 73.3607 59.1613 73.8673 60.6013 73.7073C61.4013 73.654 62.3079 73.414 63.3213 72.9873C64.3346 72.5073 65.3479 71.974 66.3613 71.3873C67.3746 70.8007 68.3346 70.1873 69.2413 69.5473C70.2013 68.854 71.0013 68.2407 71.6413 67.7073C72.8679 66.6407 73.9079 65.6007 74.7613 64.5873C75.6679 63.574 76.6813 62.294 77.8012 60.7473C77.5879 62.774 77.3746 64.8007 77.1613 66.8273C77.0013 68.8007 77.0546 70.7473 77.3213 72.6673C78.2813 73.6807 79.5346 73.974 81.0813 73.5473L81.1613 73.3073L81.7213 71.8673ZM79.0013 51.7073C78.7346 53.1473 78.2279 54.9073 77.4813 56.9873C76.7346 59.0673 75.2413 61.4673 73.0013 64.1873C72.3613 64.934 71.4813 65.734 70.3613 66.5873C69.2413 67.4407 68.0679 68.2407 66.8413 68.9873C65.6146 69.734 64.4679 70.374 63.4013 70.9073C62.3346 71.3873 61.5613 71.654 61.0813 71.7073C60.4946 71.6007 60.2013 71.0673 60.2013 70.1073C60.2013 69.1473 60.4679 67.974 61.0013 66.5873C61.5879 65.1473 62.4146 63.6273 63.4813 62.0273C64.5479 60.374 65.8546 58.8273 67.4013 57.3873C68.9479 55.9473 70.6813 54.694 72.6013 53.6273C74.5746 52.5607 76.7079 51.9207 79.0013 51.7073ZM111.016 50.7473L108.456 50.5073C107.87 51.1473 107.123 52.1873 106.216 53.6273C105.363 55.0673 104.696 56.6407 104.216 58.3473C104.003 59.094 103.656 60.054 103.176 61.2273C102.75 62.4007 102.216 63.6273 101.576 64.9073C100.936 66.1873 100.243 67.4673 99.4963 68.7473C98.7496 70.0273 97.9763 71.1207 97.1763 72.0273C96.7496 71.334 96.4296 70.0807 96.2162 68.2673C96.0563 66.4007 95.9496 64.374 95.8963 62.1873C95.8429 59.9473 95.8429 57.7607 95.8963 55.6273C96.0029 53.494 96.1096 51.7873 96.2162 50.5073C95.6296 50.5073 95.0963 50.6673 94.6163 50.9873C94.1896 51.3073 93.6829 51.5207 93.0963 51.6273C93.0429 51.7873 92.9896 52.294 92.9363 53.1473C92.9363 53.9473 92.9363 54.934 92.9363 56.1073C92.9363 57.2807 92.9363 58.5873 92.9363 60.0273C92.9896 61.414 93.0429 62.7473 93.0963 64.0273C93.1496 65.3073 93.1763 66.454 93.1763 67.4673C93.2296 68.4273 93.2829 69.094 93.3363 69.4673C93.3896 70.214 93.5229 71.0407 93.7363 71.9473C93.9496 72.854 94.3763 73.5207 95.0163 73.9473H96.8563C98.8296 72.0273 100.483 69.814 101.816 67.3073C103.15 64.7473 104.323 62.294 105.336 59.9473C106.35 57.6007 107.283 55.574 108.136 53.8673C108.99 52.1073 109.95 51.0673 111.016 50.7473ZM134.015 66.9073C133.428 66.9073 132.708 67.174 131.855 67.7073C131.055 68.2407 130.122 68.854 129.055 69.5473C128.042 70.1873 126.922 70.8007 125.695 71.3873C124.468 71.9207 123.188 72.214 121.855 72.2673C120.842 72.3207 119.988 72.214 119.295 71.9473C118.655 71.6807 118.095 71.1207 117.615 70.2673C117.188 69.5207 116.975 68.774 116.975 68.0273C117.028 67.2273 117.002 66.374 116.895 65.4673C118.762 64.774 120.602 64.0807 122.415 63.3873C124.228 62.6407 125.962 61.6273 127.615 60.3473C128.095 59.974 128.735 59.494 129.535 58.9073C130.335 58.2673 131.082 57.6007 131.775 56.9073C132.522 56.1607 133.135 55.414 133.615 54.6673C134.095 53.9207 134.282 53.2273 134.175 52.5873C134.068 51.6807 133.562 51.0673 132.655 50.7473C131.802 50.4273 130.922 50.2407 130.015 50.1873C127.722 50.0807 125.562 50.6407 123.535 51.8673C121.508 53.0407 119.748 54.5607 118.255 56.4273C116.762 58.294 115.588 60.3207 114.735 62.5073C113.935 64.6407 113.588 66.614 113.695 68.4273C113.855 70.2407 114.548 71.7073 115.775 72.8273C117.055 73.894 119.002 74.294 121.615 74.0273C123.322 73.8673 124.975 73.3607 126.575 72.5073C128.228 71.6007 129.748 70.614 131.135 69.5473C131.668 69.1207 132.175 68.7207 132.655 68.3473C133.188 67.9207 133.642 67.4407 134.015 66.9073ZM130.575 52.1073C131.482 52.2673 131.828 52.694 131.615 53.3873C131.455 54.0273 131.028 54.7473 130.335 55.5473C129.695 56.294 128.948 57.014 128.095 57.7073C127.295 58.4007 126.735 58.854 126.415 59.0673C125.135 59.974 123.615 60.8273 121.855 61.6273C120.148 62.4273 118.575 63.0407 117.135 63.4673C117.402 62.1873 117.962 60.8273 118.815 59.3873C119.668 57.894 120.682 56.5607 121.855 55.3873C123.082 54.214 124.442 53.3073 125.935 52.6673C127.428 51.974 128.975 51.7873 130.575 52.1073ZM159.828 52.5873C159.828 52.214 159.668 51.9473 159.348 51.7873C159.081 51.574 158.735 51.4407 158.308 51.3873C157.935 51.334 157.535 51.334 157.108 51.3873C156.735 51.4407 156.441 51.5207 156.228 51.6273C155.481 52.0007 154.628 52.454 153.668 52.9873C152.761 53.5207 151.775 54.214 150.708 55.0673C149.641 55.9207 148.548 56.9607 147.428 58.1873C146.308 59.414 145.188 60.8807 144.068 62.5873C144.228 62.1073 144.468 61.3073 144.788 60.1873C145.161 59.0673 145.535 57.9473 145.908 56.8273C146.281 55.654 146.575 54.5873 146.788 53.6273C147.001 52.6673 147.055 52.054 146.948 51.7873C146.415 51.9473 145.908 52.0807 145.428 52.1873C144.948 52.294 144.441 52.4007 143.908 52.5073C143.161 56.0273 142.281 59.5207 141.268 62.9873C140.255 66.4007 139.375 69.8673 138.628 73.3873C138.735 73.654 139.055 73.7607 139.588 73.7073C140.175 73.7073 140.655 73.6807 141.028 73.6273C141.188 73.5207 141.348 73.1207 141.508 72.4273C141.668 71.734 141.855 70.9073 142.068 69.9473C142.281 68.9873 142.548 68.0273 142.868 67.0673C143.241 66.054 143.668 65.2007 144.148 64.5073C145.268 62.9607 146.415 61.5473 147.588 60.2673C148.761 58.934 149.908 57.7873 151.028 56.8273C152.148 55.8673 153.215 55.1207 154.228 54.5873C155.241 54.054 156.148 53.7873 156.948 53.7873C157.481 53.894 157.668 54.2407 157.508 54.8273C157.401 55.3607 157.055 56.5073 156.468 58.2673L158.708 57.3073C158.975 56.4007 159.241 55.6273 159.508 54.9873C159.828 54.294 159.935 53.494 159.828 52.5873ZM188.522 52.0273C188.469 51.814 188.282 51.6807 187.962 51.6273C187.695 51.574 187.375 51.5473 187.002 51.5473C186.682 51.5473 186.335 51.574 185.962 51.6273C185.642 51.6273 185.402 51.654 185.242 51.7073C184.815 52.774 184.362 53.7607 183.882 54.6673C183.455 55.5207 182.922 56.4807 182.282 57.5473C181.535 58.8273 180.922 59.9207 180.442 60.8273C180.015 61.6807 179.402 62.6407 178.602 63.7073C178.282 64.134 177.829 64.774 177.242 65.6273C176.655 66.4273 175.962 67.2807 175.162 68.1873C174.362 69.0407 173.482 69.814 172.522 70.5073C171.615 71.2007 170.682 71.6273 169.722 71.7873C169.029 71.894 168.575 71.334 168.362 70.1073C168.202 68.8807 168.149 67.4407 168.202 65.7873C168.309 64.134 168.442 62.534 168.602 60.9873C168.815 59.3873 168.975 58.2673 169.082 57.6273C169.135 57.1473 169.189 56.6407 169.242 56.1073C169.349 55.574 169.402 55.0407 169.402 54.5073C169.455 53.9207 169.429 53.3873 169.322 52.9073C169.269 52.374 169.109 51.9207 168.842 51.5473C168.682 51.494 168.229 51.5207 167.482 51.6273C166.789 51.734 166.202 51.8407 165.722 51.9473C166.149 52.374 166.362 53.254 166.362 54.5873C166.415 55.8673 166.389 57.3607 166.282 59.0673C166.175 60.774 166.069 62.5607 165.962 64.4273C165.855 66.294 165.829 68.0007 165.882 69.5473C165.935 71.094 166.149 72.374 166.522 73.3873C166.949 74.4007 167.642 74.8807 168.602 74.8273C169.242 74.8273 169.802 74.694 170.282 74.4273C170.815 74.1607 171.402 73.734 172.042 73.1473C172.682 72.5607 173.402 71.7873 174.202 70.8273C175.055 69.8673 176.095 68.6673 177.322 67.2273C176.522 69.3073 175.802 71.414 175.162 73.5473C174.522 75.6273 173.829 77.7074 173.082 79.7874C172.335 81.8674 171.482 83.9207 170.522 85.9474C169.615 88.0274 168.495 90.0807 167.162 92.1074C165.295 94.934 163.002 97.014 160.282 98.3474C157.562 99.6807 154.895 100.374 152.282 100.427C149.669 100.481 147.375 99.8674 145.402 98.5874C143.429 97.3607 142.282 95.5474 141.962 93.1474C141.855 92.5074 141.802 91.8407 141.802 91.1474C141.802 90.454 141.909 89.814 142.122 89.2274C142.282 88.694 142.629 88.2674 143.162 87.9474C143.642 87.6807 144.362 87.654 145.322 87.8674C145.589 87.7074 145.749 87.5474 145.802 87.3874C145.802 87.2807 145.882 87.1207 146.042 86.9074C145.882 86.6407 145.615 86.4807 145.242 86.4274C144.869 86.374 144.469 86.374 144.042 86.4274C143.562 86.534 143.109 86.6407 142.682 86.7474C142.202 86.9074 141.829 87.0674 141.562 87.2273C140.602 87.7074 139.909 88.3474 139.482 89.1474C139.055 90.0007 138.815 90.8807 138.762 91.7874C138.655 92.694 138.709 93.6007 138.922 94.5074C139.082 95.4674 139.295 96.2674 139.562 96.9074C140.362 98.8274 141.642 100.214 143.402 101.067C145.109 101.974 147.029 102.454 149.162 102.507C151.242 102.614 153.429 102.374 155.722 101.787C157.962 101.201 160.042 100.374 161.962 99.3074C164.042 98.1874 165.882 96.934 167.482 95.5474C169.082 94.1607 170.495 92.454 171.722 90.4274C173.375 87.654 174.682 84.854 175.642 82.0274C176.655 79.254 177.535 76.4007 178.282 73.4673C178.762 71.494 179.375 69.574 180.122 67.7073C180.869 65.8407 181.749 63.974 182.762 62.1073C182.869 62.0007 182.949 61.8673 183.002 61.7073C183.109 61.5473 183.162 61.414 183.162 61.3073C184.069 59.494 184.922 57.894 185.722 56.5073C186.522 55.0673 187.455 53.574 188.522 52.0273ZM213.49 66.3473C212.69 66.454 211.997 66.6407 211.41 66.9073C210.877 67.174 210.37 67.494 209.89 67.8673C209.463 68.2407 209.01 68.6407 208.53 69.0673C208.05 69.4407 207.463 69.8407 206.77 70.2673C205.703 70.9073 204.53 71.3873 203.25 71.7073C201.97 72.0273 200.743 72.1607 199.57 72.1073C198.397 72.0007 197.357 71.7073 196.45 71.2273C195.597 70.694 195.09 69.9473 194.93 68.9873C194.663 67.7073 194.637 66.374 194.85 64.9873C195.117 63.6007 195.57 62.2407 196.21 60.9073C196.85 59.574 197.677 58.3473 198.69 57.2273C199.703 56.054 200.85 55.0407 202.13 54.1873C203.037 53.6007 203.97 53.1473 204.93 52.8273C205.89 52.454 206.903 52.3207 207.97 52.4273C208.503 52.4807 209.063 52.614 209.65 52.8273C210.29 53.0407 210.53 53.4673 210.37 54.1073C210.263 54.5873 209.997 55.0673 209.57 55.5473C209.143 55.974 208.717 56.3207 208.29 56.5873C208.823 56.4273 209.303 56.374 209.73 56.4273C210.157 56.4807 210.53 56.4807 210.85 56.4273C211.223 56.3207 211.597 56.0807 211.97 55.7073C212.397 55.334 212.85 54.614 213.33 53.5473C213.81 52.4807 213.597 51.6807 212.69 51.1473C211.783 50.5607 210.503 50.3207 208.85 50.4273C207.25 50.4807 205.41 50.8807 203.33 51.6273C201.303 52.3207 199.41 53.414 197.65 54.9073C196.743 55.654 195.917 56.534 195.17 57.5473C194.423 58.5607 193.783 59.6273 193.25 60.7473C192.77 61.8673 192.37 63.014 192.05 64.1873C191.783 65.3607 191.677 66.454 191.73 67.4673C191.783 69.3873 192.423 70.8807 193.65 71.9473C194.877 72.9607 196.343 73.574 198.05 73.7873C199.81 74.0007 201.677 73.8407 203.65 73.3073C205.623 72.774 207.383 71.894 208.93 70.6673C209.73 70.0273 210.477 69.334 211.17 68.5873C211.917 67.7873 212.69 67.0407 213.49 66.3473ZM237.964 73.3873C238.07 73.014 238.204 72.5873 238.364 72.1073C238.524 71.574 238.55 71.174 238.444 70.9073C238.23 70.9607 237.857 71.174 237.324 71.5473C236.844 71.8673 236.417 72.0273 236.044 72.0273C235.19 71.6007 234.39 70.8807 233.644 69.8673C232.897 68.854 232.337 68.0007 231.964 67.3073C231.644 66.5607 231.457 66.134 231.404 66.0273C233.324 64.374 234.817 62.8007 235.884 61.3073C237.004 59.7607 237.83 58.374 238.364 57.1473C238.897 55.8673 239.217 54.774 239.324 53.8673C239.43 52.9607 239.457 52.294 239.404 51.8673C239.404 51.494 239.244 51.254 238.924 51.1473C238.604 51.0407 238.23 51.014 237.804 51.0673C237.377 51.1207 236.95 51.2273 236.524 51.3873C236.097 51.494 235.777 51.6007 235.564 51.7073C234.124 52.4007 232.737 53.2807 231.404 54.3473C230.124 55.414 228.87 56.5873 227.644 57.8673C226.417 59.094 225.244 60.374 224.124 61.7073C223.004 62.9873 221.964 64.2407 221.004 65.4673C221.11 65.1473 221.377 64.1073 221.804 62.3473C222.23 60.5873 222.737 58.4807 223.324 56.0273C223.91 53.574 224.524 50.934 225.164 48.1073C225.804 45.2273 226.364 42.5073 226.844 39.9473C227.324 37.3873 227.67 35.174 227.884 33.3073C228.15 31.3873 228.15 30.134 227.884 29.5473C227.35 29.7073 226.844 29.8407 226.364 29.9473C225.884 30.054 225.377 30.1607 224.844 30.2673C225.217 31.0673 225.297 32.534 225.084 34.6673C224.924 36.7473 224.577 39.2007 224.044 42.0273C223.51 44.8007 222.87 47.7873 222.124 50.9873C221.377 54.1873 220.63 57.254 219.884 60.1873C219.137 63.1207 218.444 65.7873 217.804 68.1873C217.164 70.534 216.737 72.294 216.524 73.4673C216.63 73.734 216.95 73.8407 217.484 73.7873C218.07 73.7873 218.524 73.7607 218.844 73.7073C219.11 72.9073 219.35 72.214 219.564 71.6273C219.777 71.0407 220.044 70.4007 220.364 69.7073C220.737 69.014 221.217 68.214 221.804 67.3073C222.39 66.4007 223.244 65.254 224.364 63.8673C224.897 63.2273 225.67 62.374 226.684 61.3073C227.75 60.1873 228.87 59.094 230.044 58.0273C231.27 56.9073 232.47 55.9473 233.644 55.1473C234.817 54.3473 235.777 53.9473 236.524 53.9473C236.737 53.894 236.817 54.214 236.764 54.9073C236.71 55.5473 236.39 56.4273 235.804 57.5473C235.217 58.6673 234.337 59.974 233.164 61.4673C232.044 62.9073 230.524 64.4273 228.604 66.0273C228.604 66.0273 228.71 66.374 228.924 67.0673C229.19 67.7073 229.537 68.4807 229.964 69.3873C230.444 70.294 231.03 71.2273 231.724 72.1873C232.47 73.094 233.324 73.814 234.284 74.3473C234.87 74.3473 235.484 74.2673 236.124 74.1073C236.764 74.0007 237.377 73.7607 237.964 73.3873Z" fill="#A451E4"/>
</svg>
