<svg width="427" height="120" viewBox="0 0 427 120" fill="none" xmlns="http://www.w3.org/2000/svg">
<path d="M60.32 78L60.24 37.2L40 71.2H36.32L16.08 37.44V78H8.4V22H14.96L38.32 61.36L61.36 22H67.92L68 78H60.32Z" fill="white"/>
<path d="M73.32 95L73.24 54.2L53 88.2H49.32L29.08 54.44V95H21.4V39H27.96L51.32 78.36L74.36 39H80.92L81 95H73.32ZM114.126 52.2C119.993 52.2 124.473 53.64 127.566 56.52C130.713 59.4 132.286 63.6933 132.286 69.4V95H125.006V89.4C123.726 91.3733 121.886 92.8933 119.486 93.96C117.14 94.9733 114.34 95.48 111.086 95.48C106.34 95.48 102.526 94.3333 99.6463 92.04C96.8196 89.7467 95.4063 86.7333 95.4063 83C95.4063 79.2667 96.7663 76.28 99.4863 74.04C102.206 71.7467 106.526 70.6 112.446 70.6H124.606V69.08C124.606 65.7733 123.646 63.24 121.726 61.48C119.806 59.72 116.98 58.84 113.246 58.84C110.74 58.84 108.286 59.2667 105.886 60.12C103.486 60.92 101.46 62.0133 99.8063 63.4L96.6063 57.64C98.7929 55.88 101.406 54.5467 104.446 53.64C107.486 52.68 110.713 52.2 114.126 52.2ZM112.366 89.56C115.3 89.56 117.833 88.92 119.966 87.64C122.1 86.3067 123.646 84.44 124.606 82.04V76.12H112.766C106.26 76.12 103.006 78.3067 103.006 82.68C103.006 84.8133 103.833 86.4933 105.486 87.72C107.14 88.9467 109.433 89.56 112.366 89.56ZM185.238 52.6L166.678 95H158.838L140.277 52.6H148.278L162.838 86.6L177.718 52.6H185.238ZM231.553 74.04C231.553 74.6267 231.5 75.4 231.393 76.36H196.993C197.473 80.0933 199.1 83.1067 201.873 85.4C204.7 87.64 208.193 88.76 212.353 88.76C217.42 88.76 221.5 87.0533 224.593 83.64L228.833 88.6C226.913 90.84 224.513 92.5467 221.633 93.72C218.806 94.8933 215.633 95.48 212.113 95.48C207.633 95.48 203.66 94.5733 200.193 92.76C196.726 90.8933 194.033 88.3067 192.113 85C190.246 81.6933 189.313 77.96 189.313 73.8C189.313 69.6933 190.22 65.9867 192.033 62.68C193.9 59.3733 196.433 56.8133 199.633 55C202.886 53.1333 206.54 52.2 210.593 52.2C214.646 52.2 218.246 53.1333 221.393 55C224.593 56.8133 227.073 59.3733 228.833 62.68C230.646 65.9867 231.553 69.7733 231.553 74.04ZM210.593 58.68C206.913 58.68 203.82 59.8 201.313 62.04C198.86 64.28 197.42 67.2133 196.993 70.84H224.193C223.766 67.2667 222.3 64.36 219.793 62.12C217.34 59.8267 214.273 58.68 210.593 58.68ZM251.578 59.72C252.911 57.2667 254.884 55.4 257.497 54.12C260.111 52.84 263.284 52.2 267.018 52.2V59.64C266.591 59.5867 266.004 59.56 265.258 59.56C261.098 59.56 257.818 60.8133 255.418 63.32C253.071 65.7733 251.898 69.2933 251.898 73.88V95H244.218V52.6H251.578V59.72ZM317.722 52.6L297.162 99.24C295.349 103.56 293.215 106.6 290.762 108.36C288.362 110.12 285.455 111 282.042 111C279.962 111 277.935 110.653 275.962 109.96C274.042 109.32 272.442 108.36 271.162 107.08L274.442 101.32C276.629 103.4 279.162 104.44 282.042 104.44C283.909 104.44 285.455 103.933 286.682 102.92C287.962 101.96 289.109 100.28 290.122 97.88L291.482 94.92L272.762 52.6H280.762L295.562 86.52L310.202 52.6H317.722ZM344.198 95.48C339.878 95.48 336.011 94.5467 332.598 92.68C329.238 90.8133 326.598 88.2533 324.678 85C322.758 81.6933 321.798 77.96 321.798 73.8C321.798 69.64 322.758 65.9333 324.678 62.68C326.598 59.3733 329.238 56.8133 332.598 55C336.011 53.1333 339.878 52.2 344.198 52.2C348.038 52.2 351.451 52.9733 354.438 54.52C357.478 56.0667 359.824 58.3067 361.478 61.24L355.638 65C354.304 62.9733 352.651 61.4533 350.678 60.44C348.704 59.4267 346.518 58.92 344.118 58.92C341.344 58.92 338.838 59.5333 336.598 60.76C334.411 61.9867 332.678 63.7467 331.398 66.04C330.171 68.28 329.558 70.8667 329.558 73.8C329.558 76.7867 330.171 79.4267 331.398 81.72C332.678 83.96 334.411 85.6933 336.598 86.92C338.838 88.1467 341.344 88.76 344.118 88.76C346.518 88.76 348.704 88.2533 350.678 87.24C352.651 86.2267 354.304 84.7067 355.638 82.68L361.478 86.36C359.824 89.2933 357.478 91.56 354.438 93.16C351.451 94.7067 348.038 95.48 344.198 95.48ZM389.354 75.24L380.554 83.4V95H372.874V35.64H380.554V73.72L403.674 52.6H412.954L395.114 70.12L414.714 95H405.274L389.354 75.24Z" fill="#A451E4"/>
</svg>
