<svg width="427" height="110" viewBox="0 0 427 110" fill="none" xmlns="http://www.w3.org/2000/svg">
<path d="M60.32 78L60.24 37.2L40 71.2H36.32L16.08 37.44V78H8.4V22H14.96L38.32 61.36L61.36 22H67.92L68 78H60.32Z" fill="#00C9C8"/>
<path d="M73.32 85L73.24 44.2L53 78.2H49.32L29.08 44.44V85H21.4V29H27.96L51.32 68.36L74.36 29H80.92L81 85H73.32ZM114.126 42.2C119.993 42.2 124.473 43.64 127.566 46.52C130.713 49.4 132.286 53.6933 132.286 59.4V85H125.006V79.4C123.726 81.3733 121.886 82.8933 119.486 83.96C117.14 84.9733 114.34 85.48 111.086 85.48C106.34 85.48 102.526 84.3333 99.6463 82.04C96.8196 79.7467 95.4063 76.7333 95.4063 73C95.4063 69.2667 96.7663 66.28 99.4863 64.04C102.206 61.7467 106.526 60.6 112.446 60.6H124.606V59.08C124.606 55.7733 123.646 53.24 121.726 51.48C119.806 49.72 116.98 48.84 113.246 48.84C110.74 48.84 108.286 49.2667 105.886 50.12C103.486 50.92 101.46 52.0133 99.8063 53.4L96.6063 47.64C98.7929 45.88 101.406 44.5467 104.446 43.64C107.486 42.68 110.713 42.2 114.126 42.2ZM112.366 79.56C115.3 79.56 117.833 78.92 119.966 77.64C122.1 76.3067 123.646 74.44 124.606 72.04V66.12H112.766C106.26 66.12 103.006 68.3067 103.006 72.68C103.006 74.8133 103.833 76.4933 105.486 77.72C107.14 78.9467 109.433 79.56 112.366 79.56ZM185.238 42.6L166.678 85H158.838L140.277 42.6H148.278L162.838 76.6L177.718 42.6H185.238ZM231.553 64.04C231.553 64.6267 231.5 65.4 231.393 66.36H196.993C197.473 70.0933 199.1 73.1067 201.873 75.4C204.7 77.64 208.193 78.76 212.353 78.76C217.42 78.76 221.5 77.0533 224.593 73.64L228.833 78.6C226.913 80.84 224.513 82.5467 221.633 83.72C218.806 84.8933 215.633 85.48 212.113 85.48C207.633 85.48 203.66 84.5733 200.193 82.76C196.726 80.8933 194.033 78.3067 192.113 75C190.246 71.6933 189.313 67.96 189.313 63.8C189.313 59.6933 190.22 55.9867 192.033 52.68C193.9 49.3733 196.433 46.8133 199.633 45C202.886 43.1333 206.54 42.2 210.593 42.2C214.646 42.2 218.246 43.1333 221.393 45C224.593 46.8133 227.073 49.3733 228.833 52.68C230.646 55.9867 231.553 59.7733 231.553 64.04ZM210.593 48.68C206.913 48.68 203.82 49.8 201.313 52.04C198.86 54.28 197.42 57.2133 196.993 60.84H224.193C223.766 57.2667 222.3 54.36 219.793 52.12C217.34 49.8267 214.273 48.68 210.593 48.68ZM251.578 49.72C252.911 47.2667 254.884 45.4 257.497 44.12C260.111 42.84 263.284 42.2 267.018 42.2V49.64C266.591 49.5867 266.004 49.56 265.258 49.56C261.098 49.56 257.818 50.8133 255.418 53.32C253.071 55.7733 251.898 59.2933 251.898 63.88V85H244.218V42.6H251.578V49.72ZM317.722 42.6L297.162 89.24C295.349 93.56 293.215 96.6 290.762 98.36C288.362 100.12 285.455 101 282.042 101C279.962 101 277.935 100.653 275.962 99.96C274.042 99.32 272.442 98.36 271.162 97.08L274.442 91.32C276.629 93.4 279.162 94.44 282.042 94.44C283.909 94.44 285.455 93.9333 286.682 92.92C287.962 91.96 289.109 90.28 290.122 87.88L291.482 84.92L272.762 42.6H280.762L295.562 76.52L310.202 42.6H317.722ZM344.198 85.48C339.878 85.48 336.011 84.5467 332.598 82.68C329.238 80.8133 326.598 78.2533 324.678 75C322.758 71.6933 321.798 67.96 321.798 63.8C321.798 59.64 322.758 55.9333 324.678 52.68C326.598 49.3733 329.238 46.8133 332.598 45C336.011 43.1333 339.878 42.2 344.198 42.2C348.038 42.2 351.451 42.9733 354.438 44.52C357.478 46.0667 359.824 48.3067 361.478 51.24L355.638 55C354.304 52.9733 352.651 51.4533 350.678 50.44C348.704 49.4267 346.518 48.92 344.118 48.92C341.344 48.92 338.838 49.5333 336.598 50.76C334.411 51.9867 332.678 53.7467 331.398 56.04C330.171 58.28 329.558 60.8667 329.558 63.8C329.558 66.7867 330.171 69.4267 331.398 71.72C332.678 73.96 334.411 75.6933 336.598 76.92C338.838 78.1467 341.344 78.76 344.118 78.76C346.518 78.76 348.704 78.2533 350.678 77.24C352.651 76.2267 354.304 74.7067 355.638 72.68L361.478 76.36C359.824 79.2933 357.478 81.56 354.438 83.16C351.451 84.7067 348.038 85.48 344.198 85.48ZM389.354 65.24L380.554 73.4V85H372.874V25.64H380.554V63.72L403.674 42.6H412.954L395.114 60.12L414.714 85H405.274L389.354 65.24Z" fill="#F9F9F9"/>
</svg>
